<svg width="232" height="105" viewBox="0 0 232 105" fill="none" xmlns="http://www.w3.org/2000/svg">
<path d="M5.51465 64V61.9697L8.14111 61.5186V43.0366L5.51465 42.5854V40.5391H12.3789L19.936 58.3442H20.0327L27.3481 40.5391H34.4219V42.5854L31.7954 43.0366V61.5186L34.4219 61.9697V64H25.9946V61.9697L28.7661 61.5186V44.8735L28.6855 44.8574L21.064 63.1621H18.9531L11.0737 44.8896L10.9932 44.9058L11.106 54.7188V61.5186L13.9419 61.9697V64H5.51465ZM48.1195 64V61.9697L49.8597 61.728L58.0613 40.5391H60.7845L68.8411 61.728L70.5653 61.9697V64H63.8299V61.9697L65.6024 61.6636L64.0555 57.3452H54.6614L53.0662 61.6636L54.8387 61.9697V64H48.1195ZM55.6444 54.6865H63.0887L59.6404 45.1475L59.4471 44.6157H59.3504L59.1571 45.1475L55.6444 54.6865ZM106.178 64V61.9697L108.805 61.5186V43.0366L106.178 42.5854V40.5391H114.605V42.5854L111.979 43.0366V51.1416H123.194V43.0366L120.567 42.5854V40.5391H128.995V42.5854L126.368 43.0366V61.5186L128.995 61.9697V64H120.567V61.9697L123.194 61.5186V53.6392H111.979V61.5186L114.605 61.9697V64H106.178ZM142.66 64V61.9697L145.286 61.5186V43.0366L142.66 42.5854V40.5391H160.03V46.1787H157.484L157.13 42.9883H148.461V50.626H157.114V53.1235H148.461V61.6152H157.645L158 58.3765H160.53V64H142.66ZM185.619 64.3384C184.008 64.3384 182.568 64.0215 181.301 63.3877C180.033 62.7539 179.034 61.8516 178.304 60.6807C177.573 59.499 177.208 58.0864 177.208 56.4429V43.0366L174.582 42.5854V40.5391H183.009V42.5854L180.382 43.0366V56.4429C180.382 58.1938 180.871 59.5259 181.849 60.439C182.826 61.3413 184.099 61.7925 185.668 61.7925C187.247 61.7925 188.536 61.3467 189.535 60.4551C190.545 59.5635 191.049 58.2261 191.049 56.4429V43.0366L188.423 42.5854V40.5391H196.85V42.5854L194.224 43.0366V56.4429C194.224 58.9888 193.434 60.9438 191.855 62.3081C190.287 63.6616 188.208 64.3384 185.619 64.3384ZM218.798 64.3384C217.369 64.3384 215.994 64.1289 214.673 63.71C213.351 63.291 212.089 62.6465 210.886 61.7764V56.7651H213.351L213.883 60.4551C214.581 60.8848 215.339 61.2178 216.155 61.4541C216.972 61.6904 217.852 61.8086 218.798 61.8086C220.398 61.8086 221.639 61.4541 222.52 60.7451C223.401 60.0254 223.841 59.0854 223.841 57.9253C223.841 56.8511 223.444 55.9595 222.649 55.2505C221.854 54.5415 220.436 53.9561 218.395 53.4941C215.967 52.9355 214.114 52.0869 212.836 50.9482C211.558 49.7988 210.918 48.354 210.918 46.6138C210.918 45.3892 211.241 44.2935 211.885 43.3267C212.54 42.3599 213.448 41.5972 214.608 41.0386C215.768 40.48 217.122 40.2007 218.669 40.2007C220.312 40.2007 221.763 40.4531 223.019 40.958C224.287 41.4521 225.329 42.0537 226.145 42.7627V47.4517H223.68L223.148 44.1001C222.665 43.7134 222.063 43.3911 221.344 43.1333C220.624 42.8755 219.732 42.7466 218.669 42.7466C217.305 42.7466 216.198 43.0957 215.35 43.7939C214.512 44.4922 214.093 45.416 214.093 46.5654C214.093 47.5752 214.496 48.4023 215.301 49.0469C216.107 49.6807 217.503 50.2446 219.491 50.7388C221.961 51.3511 223.83 52.2588 225.098 53.4619C226.376 54.6543 227.016 56.1313 227.016 57.8931C227.016 59.1499 226.677 60.2671 226 61.2446C225.324 62.2114 224.368 62.9688 223.132 63.5166C221.908 64.0645 220.463 64.3384 218.798 64.3384Z" fill="#F5F5F5"/>
<path d="M84.0695 64V61.9697L86.6959 61.5186V43.0366L84.0695 42.5854V40.5391H92.4967V42.5854L89.8703 43.0366V61.5186L92.4967 61.9697V64H84.0695Z" fill="#0500FF"/>
<line x1="5" y1="41.6" x2="226.1" y2="41.6" stroke="#0500FF" stroke-width="2.8"/>
</svg>
