<svg width="232" height="29" viewBox="0 0 232 29" fill="none" xmlns="http://www.w3.org/2000/svg">
<path d="M5.51465 26V23.9697L8.14111 23.5186V5.03662L5.51465 4.58545V2.53906H12.3789L19.936 20.3442H20.0327L27.3481 2.53906H34.4219V4.58545L31.7954 5.03662V23.5186L34.4219 23.9697V26H25.9946V23.9697L28.7661 23.5186V6.87354L28.6855 6.85742L21.064 25.1621H18.9531L11.0737 6.88965L10.9932 6.90576L11.106 16.7188V23.5186L13.9419 23.9697V26H5.51465ZM48.1195 26V23.9697L49.8597 23.728L58.0613 2.53906H60.7845L68.8411 23.728L70.5653 23.9697V26H63.8299V23.9697L65.6024 23.6636L64.0555 19.3452H54.6614L53.0662 23.6636L54.8387 23.9697V26H48.1195ZM55.6444 16.6865H63.0887L59.6404 7.14746L59.4471 6.61572H59.3504L59.1571 7.14746L55.6444 16.6865ZM106.178 26V23.9697L108.805 23.5186V5.03662L106.178 4.58545V2.53906H114.605V4.58545L111.979 5.03662V13.1416H123.194V5.03662L120.567 4.58545V2.53906H128.995V4.58545L126.368 5.03662V23.5186L128.995 23.9697V26H120.567V23.9697L123.194 23.5186V15.6392H111.979V23.5186L114.605 23.9697V26H106.178ZM142.66 26V23.9697L145.286 23.5186V5.03662L142.66 4.58545V2.53906H160.03V8.17871H157.484L157.13 4.98828H148.461V12.626H157.114V15.1235H148.461V23.6152H157.645L158 20.3765H160.53V26H142.66ZM185.619 26.3384C184.008 26.3384 182.568 26.0215 181.301 25.3877C180.033 24.7539 179.034 23.8516 178.304 22.6807C177.573 21.499 177.208 20.0864 177.208 18.4429V5.03662L174.582 4.58545V2.53906H183.009V4.58545L180.382 5.03662V18.4429C180.382 20.1938 180.871 21.5259 181.849 22.439C182.826 23.3413 184.099 23.7925 185.668 23.7925C187.247 23.7925 188.536 23.3467 189.535 22.4551C190.545 21.5635 191.049 20.2261 191.049 18.4429V5.03662L188.423 4.58545V2.53906H196.85V4.58545L194.224 5.03662V18.4429C194.224 20.9888 193.434 22.9438 191.855 24.3081C190.287 25.6616 188.208 26.3384 185.619 26.3384ZM218.798 26.3384C217.369 26.3384 215.994 26.1289 214.673 25.71C213.351 25.291 212.089 24.6465 210.886 23.7764V18.7651H213.351L213.883 22.4551C214.581 22.8848 215.339 23.2178 216.155 23.4541C216.972 23.6904 217.852 23.8086 218.798 23.8086C220.398 23.8086 221.639 23.4541 222.52 22.7451C223.401 22.0254 223.841 21.0854 223.841 19.9253C223.841 18.8511 223.444 17.9595 222.649 17.2505C221.854 16.5415 220.436 15.9561 218.395 15.4941C215.967 14.9355 214.114 14.0869 212.836 12.9482C211.558 11.7988 210.918 10.354 210.918 8.61377C210.918 7.38916 211.241 6.29346 211.885 5.32666C212.54 4.35986 213.448 3.59717 214.608 3.03857C215.768 2.47998 217.122 2.20068 218.669 2.20068C220.312 2.20068 221.763 2.45312 223.019 2.95801C224.287 3.45215 225.329 4.05371 226.145 4.7627V9.45166H223.68L223.148 6.1001C222.665 5.71338 222.063 5.39111 221.344 5.1333C220.624 4.87549 219.732 4.74658 218.669 4.74658C217.305 4.74658 216.198 5.0957 215.35 5.79395C214.512 6.49219 214.093 7.41602 214.093 8.56543C214.093 9.5752 214.496 10.4023 215.301 11.0469C216.107 11.6807 217.503 12.2446 219.491 12.7388C221.961 13.3511 223.83 14.2588 225.098 15.4619C226.376 16.6543 227.016 18.1313 227.016 19.8931C227.016 21.1499 226.677 22.2671 226 23.2446C225.324 24.2114 224.368 24.9688 223.132 25.5166C221.908 26.0645 220.463 26.3384 218.798 26.3384Z" fill="#F5F5F5"/>
<path d="M84.0695 26V23.9697L86.6959 23.5186V5.03662L84.0695 4.58545V2.53906H92.4967V4.58545L89.8703 5.03662V23.5186L92.4967 23.9697V26H84.0695Z" fill="#0500FF"/>
<line x1="5" y1="2.6" x2="226.1" y2="2.6" stroke="#0500FF" stroke-width="2.8"/>
</svg>
