<svg width="86" height="21" viewBox="0 0 86 21" fill="none" xmlns="http://www.w3.org/2000/svg">
<rect width="86" height="21" fill="#0A0A0A"/>
<path d="M6.92914 15V14.3232L7.80463 14.1729V8.01221L6.92914 7.86182V7.17969H9.21723L11.7363 13.1147H11.7685L14.207 7.17969H16.5649V7.86182L15.6894 8.01221V14.1729L16.5649 14.3232V15H13.7558V14.3232L14.6796 14.1729V8.62451L14.6528 8.61914L12.1122 14.7207H11.4086L8.78217 8.62988L8.75531 8.63525L8.79291 11.9062V14.1729L9.73822 14.3232V15H6.92914ZM21.1307 15V14.3232L21.7108 14.2427L24.4447 7.17969H25.3524L28.038 14.2427L28.6127 14.3232V15H26.3676V14.3232L26.9584 14.2212L26.4428 12.7817H23.3114L22.7797 14.2212L23.3705 14.3232V15H21.1307ZM23.639 11.8955H26.1205L24.9711 8.71582L24.9066 8.53857H24.8744L24.8099 8.71582L23.639 11.8955ZM40.4837 15V14.3232L41.3591 14.1729V8.01221L40.4837 7.86182V7.17969H43.2927V7.86182L42.4172 8.01221V10.7139H46.1555V8.01221L45.28 7.86182V7.17969H48.0891V7.86182L47.2136 8.01221V14.1729L48.0891 14.3232V15H45.28V14.3232L46.1555 14.1729V11.5464H42.4172V14.1729L43.2927 14.3232V15H40.4837ZM52.6442 15V14.3232L53.5197 14.1729V8.01221L52.6442 7.86182V7.17969H58.4343V9.05957H57.5856L57.4675 7.99609H54.5778V10.542H57.4621V11.3745H54.5778V14.2051H57.6394L57.7575 13.1255H58.6008V15H52.6442ZM66.964 15.1128C66.4269 15.1128 65.9471 15.0072 65.5246 14.7959C65.102 14.5846 64.769 14.2839 64.5255 13.8936C64.282 13.4997 64.1603 13.0288 64.1603 12.481V8.01221L63.2848 7.86182V7.17969H66.0939V7.86182L65.2184 8.01221V12.481C65.2184 13.0646 65.3813 13.5086 65.7072 13.813C66.033 14.1138 66.4573 14.2642 66.9801 14.2642C67.5065 14.2642 67.9362 14.1156 68.2692 13.8184C68.6058 13.5212 68.7741 13.0754 68.7741 12.481V8.01221L67.8986 7.86182V7.17969H70.7077V7.86182L69.8322 8.01221V12.481C69.8322 13.3296 69.569 13.9813 69.0426 14.436C68.5198 14.8872 67.827 15.1128 66.964 15.1128ZM78.0235 15.1128C77.5473 15.1128 77.0889 15.043 76.6485 14.9033C76.2081 14.7637 75.7873 14.5488 75.3863 14.2588V12.5884H76.2081L76.3853 13.8184C76.6181 13.9616 76.8705 14.0726 77.1427 14.1514C77.4148 14.2301 77.7084 14.2695 78.0235 14.2695C78.557 14.2695 78.9706 14.1514 79.2642 13.915C79.5579 13.6751 79.7047 13.3618 79.7047 12.9751C79.7047 12.617 79.5722 12.3198 79.3072 12.0835C79.0422 11.8472 78.5696 11.652 77.8892 11.498C77.08 11.3118 76.4623 11.029 76.0362 10.6494C75.6101 10.2663 75.397 9.78467 75.397 9.20459C75.397 8.79639 75.5045 8.43115 75.7193 8.10889C75.9377 7.78662 76.2403 7.53239 76.627 7.34619C77.0137 7.15999 77.4649 7.06689 77.9805 7.06689C78.5284 7.06689 79.0118 7.15104 79.4307 7.31934C79.8533 7.48405 80.2006 7.68457 80.4727 7.9209V9.48389H79.651L79.4737 8.3667C79.3126 8.23779 79.1121 8.13037 78.8721 8.04443C78.6322 7.9585 78.335 7.91553 77.9805 7.91553C77.5258 7.91553 77.157 8.0319 76.8741 8.26465C76.5948 8.4974 76.4552 8.80534 76.4552 9.18848C76.4552 9.52507 76.5894 9.80078 76.858 10.0156C77.1265 10.2269 77.592 10.4149 78.2545 10.5796C79.078 10.7837 79.7011 11.0863 80.1236 11.4873C80.5497 11.8848 80.7628 12.3771 80.7628 12.9644C80.7628 13.3833 80.65 13.7557 80.4244 14.0815C80.1988 14.4038 79.8801 14.6562 79.4683 14.8389C79.0601 15.0215 78.5785 15.1128 78.0235 15.1128Z" fill="#F5F5F5"/>
<path d="M33.1141 15V14.3232L33.9896 14.1729V8.01221L33.1141 7.86182V7.17969H35.9232V7.86182L35.0477 8.01221V14.1729L35.9232 14.3232V15H33.1141Z" fill="#0500FF"/>
<line x1="7.37499" y1="7.425" x2="79.925" y2="7.425" stroke="#3300FF" stroke-width="1.15" stroke-linecap="square"/>
</svg>
